# xmcd
# 
# Track frame offsets:
#     150
#     26412
#     48560
#     73448
#     98711
#     126398
#     150646
#     175036
# 
# Disc length: 2596
# 
# Revision: 1
# Processed by: cddbd v1.5.2PL0 Copyright (c) Steve Scherf et al.
# Submitted via: fre:ac v1.0.31
# 
DISCID=6a0a2208
DTITLE=范宗沛 Fan Zong-pei、林海 Lin Hai - 清香落 The Spirit of Fragrance
DYEAR=1997
DGENRE=Musical
TTITLE0=清香落 The Spirit of Fragrance
TTITLE1=空山空 Emptiness
TTITLE2=好閒風 Getting Hold of Wind
TTITLE3=淺雲來 Clouds Drift by
TTITLE4=掬水 The Mirror Deep Inside
TTITLE5=指月 Moon Flower
TTITLE6=啣花 Pilot of Life
TTITLE7=翦石 The UnKnown
EXTD=YEAR: 1997
EXTT0=
EXTT1=
EXTT2=
EXTT3=
EXTT4=
EXTT5=
EXTT6=
EXTT7=
PLAYORDER=
